<svg height="512" viewBox="0 0 60 60" width="512" xmlns="http://www.w3.org/2000/svg"><g id="Page-1" fill="none" fill-rule="evenodd"><g id="018---Graph"><g id="Icons" transform="translate(1 1)"><path id="Path" d="m30.31 35c-.9661074 1.531783-1.6470769 3.225737-2.01 5h-26.3c-1.10320187-.0032948-1.9967052-.8967981-2-2v-36c.0032948-1.10320187.89679813-1.9967052 2-2h1c1.10320187.0032948 1.9967052.89679813 2 2v33z" fill="#607d8b"/><path id="Path" d="m58 43c-.0000001 8.2842712-6.7157288 14.9999998-15 14.9999998s-14.9999999-6.7157286-15-14.9999998c-.0022508-1.0075985.0982693-2.0127996.3-3 1.5335153-7.5521783 8.5402033-12.7136061 16.2074882-11.9391328 7.6672849.7744732 13.5002566 7.2328363 13.4925118 14.9391328z" fill="#f5f5f5"/><path id="Path" d="m43 28c-.494 0-.98.032-1.462.078 7.6560605.7885366 13.4729906 7.2436107 13.4631913 14.9401656-.0097992 7.6965548-5.8431477 14.1367958-13.5011913 14.9058344.494.049.994.076 1.5.076 8.2842712-.0000001 14.9999998-6.7157288 14.9999998-15s-6.7157286-14.9999999-14.9999998-15z" fill="#cfd8dc"/><path id="Path" d="m57.96 9.5-1.4 5.6c-.1073673.4170685-.4299986.7446189-.8453948.8582845-.4153962.1136657-.8598489-.0039861-1.1646052-.3082845l-.69-.69-4.74 4.75c-1.1712702 1.1698135-3.0687298 1.1698135-4.24 0l-3.88-3.88-10.88 10.88c-1.187403 1.130159-3.052597 1.130159-4.24 0l-4.88-4.88-13.18 13.17h-2.82v-2.82l13.88-13.89c1.1712702-1.1698135 3.0687298-1.1698135 4.24 0l4.88 4.88 10.88-10.88c1.1712702-1.1698135 3.0687298-1.1698135 4.24 0l3.88 3.88 4.04-4.03-.69-.69c-.3042984-.3047563-.4219502-.749209-.3082845-1.1646052.1136656-.41539623.441216-.73802747.8582845-.8453948l5.6-1.4c.4106438-.10506706.8462548.01429969 1.1459776.31402244.2997227.29972274.4190895.73533372.3140224 1.14597756z" fill="#f44335"/></g><g id="Icons_copy" fill="#000"><path id="Shape" d="m44 28c-5.2930032.0018089-10.242134 2.6227739-13.218 7h-7.782v-6c0-.5522847-.4477153-1-1-1s-1 .4477153-1 1v6h-9.764l10.764-10.756 4.173 4.173c1.573276 1.5321456 4.080724 1.5321456 5.654 0l10.173-10.173 3.173 3.173c1.5618848 1.5608614 4.0931152 1.5608614 5.655 0l4.035-4.044c.5612115.5508512 1.3742241.759393 2.1312918.5466871.7570677-.2127058 1.3425047-.8141564 1.5347082-1.5766871l1.4-5.6c.1891309-.75110376-.0306469-1.54632604-.5786437-2.09370783s-1.3434654-.76626638-2.0943563-.57629217l-5.605 1.4c-.7598286.19593229-1.3577796.7817368-1.5692621 1.5373849s-.0044781 1.5667348.5432621 2.1286151l-2.625 2.618-3.174-3.174c-1.5617701-1.5601953-4.0922299-1.5601953-5.654 0l-10.172 10.173-4.173-4.173c-1.5617701-1.5601953-4.0922299-1.5601953-5.654 0l-12.173 12.182v-27.765c0-1.65685425-1.34314575-3-3-3h-1c-1.65685425 0-3 1.34314575-3 3v36c0 1.6568542 1.34314575 3 3 3h25.139c-.8288906 6.5996605 2.5135908 13.0233871 8.3940072 16.1319691 5.8804163 3.1085821 13.0709925 2.2529771 18.0577662-2.1486893 4.9867736-4.4016665 6.7285537-11.4303682 4.3741499-17.6512492-2.3544039-6.2208811-8.3134145-10.3350806-14.9649233-10.3320306zm-23.413-8c.7807702-.7794319 2.0452298-.7794319 2.826 0l4.88 4.88c.3904999.3903819 1.0235001.3903819 1.414 0l10.88-10.88c.7807702-.7794319 2.0452298-.7794319 2.826 0l3.88 3.88c.3903851.3897159 1.0226149.3897159 1.413 0l4.04-4.03c.3903819-.3904999.3903819-1.0235001 0-1.414l-.689-.689c-.056298-.0499306-.077183-.128742-.053-.2.015246-.0691233.0689886-.1232553.138-.139l5.6-1.4c.0699416-.02101763.1457785-.0022413.1978342.0489815s.0720527.126747.0521658.1970185l-1.4 5.6c-.0185212.0688276-.0722723.122597-.1410936.1411417-.0688212.0185446-.142311-.0009383-.1929064-.0511417l-.69-.69c-.3904999-.3903819-1.0235001-.3903819-1.414 0l-4.741 4.746c-.7807702.7794319-2.0452298.7794319-2.826 0l-3.88-3.88c-.3904999-.3903819-1.0235001-.3903819-1.414 0l-10.88 10.88c-.7970121.7391308-2.0289879.7391308-2.826 0l-4.88-4.88c-.3904999-.3903819-1.0235001-.3903819-1.414 0l-12.887 12.88h-1.406v-1.406zm-17.587 20c-.55228475 0-1-.4477153-1-1v-36c0-.55228475.44771525-1 1-1h1c.55228475 0 1 .44771525 1 1v33c0 .5522847.44771525 1 1 1h23.635c-.4698987.95993-.8411352 1.9650828-1.108 3zm41 18c-5.6624714 0-10.7673795-3.4109905-12.9343135-8.6424319-2.166934-5.2314415-.9691534-11.2530911 3.0348186-15.257063 4.0039719-4.003972 10.0256215-5.2017526 15.257063-3.0348186 5.2314414 2.166934 8.6424319 7.2718421 8.6424319 12.9343135-.0082673 7.7285595-6.2714405 13.9917327-14 14z" fill-rule="nonzero"/><path id="Path" d="m45 43.586v-9.586c0-.5522847-.4477153-1-1-1s-1 .4477153-1 1v10c.0000566.2651948.1054506.5195073.293.707l6 6c.3923789.3789722 1.0160848.3735524 1.4018186-.0121814s.3911536-1.0094397.0121814-1.4018186z"/><path id="Path" d="m41 23v2.11c0 .5522847.4477153 1 1 1s1-.4477153 1-1v-2.11c0-.5522847-.4477153-1-1-1s-1 .4477153-1 1z"/><path id="Path" d="m23 14.41v-11.41c0-.55228475-.4477153-1-1-1s-1 .44771525-1 1v11.41c0 .5522847.4477153 1 1 1s1-.4477153 1-1z"/><path id="Path" d="m43 8.41v-5.41c0-.55228475-.4477153-1-1-1s-1 .44771525-1 1v5.41c0 .55228475.4477153 1 1 1s1-.44771525 1-1z"/></g></g></g></svg>