<?xml version="1.0" encoding="utf-8"?>
<svg viewBox="0 0 500 670" xmlns="http://www.w3.org/2000/svg">
  <path id="path222" style="fill: rgb(255, 255, 255);" d="M 116.759 376.706 C 126.992 377.09 134.404 380.144 139.084 385.746 C 143.771 390.432 144.717 395.261 141.904 400.417 C 139.084 404.634 133.546 406.75 125.116 406.75 C 117.164 406.274 110.21 404.174 104.117 400.417 C 98.587 396.689 97.4 391.767 100.695 385.746 C 104.353 379.654 109.75 376.706 116.759 376.706 Z"/>
  <g transform="matrix(2.9907360076904297, 0, 0, 2.9907360076904297, 58.970394134521484, 116.32710266113281)" style="">
    <path d="m96.24 104.47a13.6 13.6 0 0 1 -8.04-12.432l.19-69.53a15.508 15.508 0 0 0 -15.508-15.508h-65.882v40.675s37.678-5.316 57.117-14.42c0 0-8.063 16.36.056 32.46a43.939 43.939 0 0 1 4.512 15.027c.476 3.925.829 7.8 1.082 11.07a29.645 29.645 0 0 1 -2.357 13.968 19.775 19.775 0 0 0 -1.692 7.709 7.511 7.511 0 0 0 7.511 7.511h3.271a19.4 19.4 0 0 0 6.5-1.121 14.6 14.6 0 0 1 8.467-.391 49.029 49.029 0 0 0 11.749 1.512 55.823 55.823 0 0 0 7.333-.928 23.861 23.861 0 0 0 5.128.868c3.932 0 5.323-2.179 5.323-6.737l-9-1.506a162.368 162.368 0 0 0 -15.76-8.227z" fill="#fcbfab"/>
    <path d="m7 33.641v14.034s37.678-5.316 57.117-14.42c0 0-33.36 2.586-57.117.386z" fill="#fca17a"/>
    <g>
      <path d="m82.412 27.989-1.2-.665a6.931 6.931 0 0 1 -3.412-4.624l-1.063-5.023a1.749 1.749 0 1 0 -3.423.725l1.062 5.022a10.431 10.431 0 0 0 5.138 6.96l1.2.665a1.75 1.75 0 0 0 1.7-3.059z"/>
      <path d="m72.882 5.25h-65.882a1.75 1.75 0 0 0 0 3.5h65.882a13.773 13.773 0 0 1 13.759 13.75l-.114 41.66a1.751 1.751 0 0 0 1.746 1.755 1.75 1.75 0 0 0 1.75-1.746l.114-41.661a17.279 17.279 0 0 0 -17.255-17.258z"/>
      <path d="m88.256 72.071a1.75 1.75 0 0 0 -1.75 1.745l-.012 4.5a1.749 1.749 0 0 0 1.745 1.754h.005a1.75 1.75 0 0 0 1.75-1.745l.012-4.5a1.751 1.751 0 0 0 -1.75-1.754z"/>
      <path d="m121.289 112.477-8.669-1.451a164.027 164.027 0 0 0 -15.662-8.152 11.872 11.872 0 0 1 -7.007-10.831l.012-4.48a1.749 1.749 0 0 0 -1.745-1.755h-.005a1.75 1.75 0 0 0 -1.75 1.745l-.012 4.481a15.373 15.373 0 0 0 9.071 14.031 162.376 162.376 0 0 1 15.572 8.127 1.75 1.75 0 0 0 .62.231l7.475 1.251c-.3 3.238-1.668 3.516-3.512 3.516a21.729 21.729 0 0 1 -4.651-.8 1.771 1.771 0 0 0 -.8-.036 54.614 54.614 0 0 1 -7.007.9 47.415 47.415 0 0 1 -11.319-1.464 16.339 16.339 0 0 0 -9.481.44 17.606 17.606 0 0 1 -5.913 1.02h-3.277a5.767 5.767 0 0 1 -5.761-5.761 17.883 17.883 0 0 1 1.551-7.021 31.569 31.569 0 0 0 2.493-14.791c-.307-3.963-.674-7.713-1.081-11.059a45.425 45.425 0 0 0 -4.7-15.691c-7.613-15.1-.124-30.744-.049-30.9a1.75 1.75 0 0 0 -2.312-2.358c-5.64 2.642-13.441 5.228-23.186 7.686a1.75 1.75 0 0 0 .856 3.394 158.913 158.913 0 0 0 19.922-6.226c-1.975 6.05-4.4 18 1.644 29.979a42.717 42.717 0 0 1 4.338 14.449c.41 3.383.771 7.083 1.075 11a28.071 28.071 0 0 1 -2.219 13.14 21.339 21.339 0 0 0 -1.833 8.4 9.271 9.271 0 0 0 9.261 9.261h3.272a21.1 21.1 0 0 0 7.085-1.222 12.828 12.828 0 0 1 7.454-.343 51.049 51.049 0 0 0 12.176 1.565 52.447 52.447 0 0 0 7.26-.885 23.8 23.8 0 0 0 5.2.825c7.073 0 7.073-6.388 7.073-8.487a1.75 1.75 0 0 0 -1.459-1.728z"/>
      <path d="m31.148 41.476c-13.107 2.862-24.281 4.451-24.393 4.466a1.75 1.75 0 0 0 .245 3.483 1.729 1.729 0 0 0 .247-.017c.112-.016 11.408-1.621 24.65-4.513a1.75 1.75 0 0 0 -.747-3.419z"/>
      <path d="m77.689 100.307a1.75 1.75 0 0 0 -2.9-1.957c-1.2 1.76-2.512 5.865 1.06 8.8a1.75 1.75 0 1 0 2.221-2.7c-1.912-1.574-.657-3.722-.381-4.143z"/>
    </g>
  </g>
  <ellipse style="fill: rgba(255, 0, 0, 0.643); stroke: rgba(255, 0, 0, 0.408); transform-origin: 323.849px 217.472px;" cx="323.849" cy="217.472" rx="19.604" ry="35.074" transform="matrix(-0.066899001598, 0.997760117054, -0.997760117054, -0.066899001598, -72.850424152819, -5.460123377225)"/>
</svg>