<?xml version="1.0" encoding="UTF-8"?>
<svg xmlns="http://www.w3.org/2000/svg" xmlns:xlink="http://www.w3.org/1999/xlink" version="1.1" id="Capa_1" x="0px" y="0px" viewBox="0 0 512 512" style="enable-background:new 0 0 512 512;" xml:space="preserve" width="512" height="512">
<g>
	<g>
		<path style="fill:#FF7E92;" d="M504.5,284.057c0-14.335-3.691-27.767-10.085-39.546c-4.698-8.654-7.638-18.144-9.295-27.85&#10;&#9;&#9;&#9;c-1.885-11.044-4.55-21.822-7.935-32.276c-3.41-10.531-5.167-21.51-4.814-32.574c0.043-1.337,0.064-2.68,0.064-4.028&#10;&#9;&#9;&#9;C472.435,70.431,409.504,7.5,332.153,7.5c-20.661,0-40.248,4.542-57.895,12.627c-4.798,2.198-9.946,3.513-15.223,3.43&#10;&#9;&#9;&#9;c-1.01-0.016-2.021-0.024-3.035-0.024c-23.465,0-46.106,3.504-67.457,9.978c-6.486,1.967-13.318,2.42-19.921,0.892&#10;&#9;&#9;&#9;c-16.288-3.77-33.898-4.028-52.192,0.574C76.661,44.98,44.98,76.661,34.976,116.431c-4.734,18.819-4.325,36.914-0.241,53.591&#10;&#9;&#9;&#9;c1.388,5.668,0.926,11.568-0.802,17.141C27.189,208.918,23.532,232.028,23.532,256c0,1.112,0.01,2.221,0.029,3.329&#10;&#9;&#9;&#9;c0.087,5.083-1.184,10.043-3.311,14.661c-8.012,17.392-12.581,36.677-12.746,57.022c-0.536,66.166,47.162,124.252,111.811,138.352&#10;&#9;&#9;&#9;c14.592,3.182,28.754,3.744,42.348,2.363c3.881-0.394,7.761,0.074,11.405,1.465c22.409,8.558,46.481,13.727,71.599,14.93&#10;&#9;&#9;&#9;c4.096,0.196,8.022,1.467,11.572,3.521c14.097,8.155,30.425,12.857,47.857,12.857c35.782,0,67.002-19.669,83.555-48.742&#10;&#9;&#9;&#9;c5.121-8.993,12.072-16.786,19.914-23.538c20.376-17.544,37.668-38.56,50.971-62.133c4.95-8.772,10.881-17.001,18.336-23.774&#10;&#9;&#9;&#9;C493.829,330.911,504.5,308.715,504.5,284.057z"/>
		<circle style="fill:#FF9BA6;" cx="420.331" cy="284.057" r="52.105"/>
		<circle style="fill:#FF9BA6;" cx="304.097" cy="408.307" r="40.081"/>
		<circle style="fill:#FF9BA6;" cx="332.153" cy="147.782" r="84.169"/>
		<circle style="fill:#FF9BA6;" cx="147.782" cy="332.153" r="84.169"/>
		<circle style="fill:#FF9BA6;" cx="143.774" cy="143.774" r="56.113"/>
		<circle style="fill:#FF7E92;" cx="151.609" cy="175.657" r="16.032"/>
		<circle style="fill:#FF5F7A;" cx="111.71" cy="127.742" r="16.032"/>
		<circle style="fill:#FF5F7A;" cx="171.486" cy="121.032" r="16.032"/>
		<circle style="fill:#FF5F7A;" cx="138.116" cy="271.597" r="16.032"/>
		<circle style="fill:#FF7E92;" cx="103.694" cy="320.129" r="16.032"/>
		<circle style="fill:#FF5F7A;" cx="168.258" cy="343.561" r="16.032"/>
		<circle style="fill:#FF7E92;" cx="191.617" cy="289.552" r="16.032"/>
		<circle style="fill:#FF7E92;" cx="134.976" cy="392.138" r="16.032"/>
		<circle style="fill:#FF5F7A;" cx="91.014" cy="349.483" r="16.032"/>
		<circle style="fill:#FF5F7A;" cx="193.467" cy="370.293" r="16.032"/>
		<circle style="fill:#FF5F7A;" cx="292.852" cy="419.986" r="16.032"/>
		<circle style="fill:#FF7E92;" cx="316.901" cy="395.938" r="16.032"/>
		<circle style="fill:#FF5F7A;" cx="302.791" cy="196.151" r="16.032"/>
		<circle style="fill:#FF5F7A;" cx="366.231" cy="199.452" r="16.032"/>
		<circle style="fill:#FF5F7A;" cx="279.794" cy="135.504" r="16.032"/>
		<circle style="fill:#FF7E92;" cx="355.492" cy="140.714" r="16.032"/>
		<circle style="fill:#FF5F7A;" cx="384.188" cy="124.346" r="16.032"/>
		<circle style="fill:#FF5F7A;" cx="416.323" cy="288.065" r="16.032"/>
		<circle style="fill:#FF7E92;" cx="319.875" cy="91.76" r="16.032"/>
		<circle style="fill:#FF9BA6;" cx="300.089" cy="300.089" r="20.04"/>
		<path style="fill:#FF5F7A;" d="M407.566,432.219c20.376-17.544,37.667-38.56,50.971-62.134&#10;&#9;&#9;&#9;c4.95-8.772,10.881-17.001,18.336-23.773c16.956-15.402,27.627-37.597,27.627-62.256c0-14.335-3.69-27.767-10.086-39.546&#10;&#9;&#9;&#9;c-4.697-8.654-7.637-18.144-9.294-27.85c-1.885-11.045-4.55-21.822-7.934-32.276c-3.41-10.531-5.167-21.511-4.814-32.574&#10;&#9;&#9;&#9;c0.042-1.337,0.064-2.68,0.064-4.028c0-50.766-27.198-95.186-67.698-119.815l-0.701,1.217&#10;&#9;&#9;&#9;c-5.989,10.607-4.124,24.288,5.169,32.617c24.612,22.068,38.49,54.244,38.49,85.981c0,1.072-0.016,2.145-0.047,3.264&#10;&#9;&#9;&#9;c-0.438,13.778,2.363,27.806,6.966,41.685c2.842,8.588,5.112,17.88,6.74,27.618c2.2,13.136,5.727,25.121,11.434,35.634&#10;&#9;&#9;&#9;c4.76,8.76,6.91,18.208,6.91,28.072c0,16.854-6.801,32.405-19.344,44.364c-8.531,8.134-15.924,17.73-22.735,29.801&#10;&#9;&#9;&#9;c-11.962,21.215-27.305,39.932-45.592,55.643c-10.646,9.136-19.416,18.928-25.61,29.655c-12.76,22.1-36.53,36.333-62.325,36.333&#10;&#9;&#9;&#9;c-8.173,0-16.236-1.393-23.97-4.149c-11.648-4.125-24.604,1.21-30.82,11.919l-0.695,1.2c2.659,0.585,5.249,1.443,7.631,2.821&#10;&#9;&#9;&#9;c14.098,8.156,30.425,12.857,47.857,12.857c35.782,0,67.002-19.669,83.556-48.743&#10;&#9;&#9;&#9;C392.772,446.764,399.724,438.972,407.566,432.219z"/>
	</g>
	<g>
		
			<circle style="fill:none;stroke:#000000;stroke-width:15;stroke-linecap:round;stroke-linejoin:round;stroke-miterlimit:10;" cx="147.782" cy="332.153" r="108.218"/>
		
			<circle style="fill:none;stroke:#000000;stroke-width:15;stroke-linecap:round;stroke-linejoin:round;stroke-miterlimit:10;" cx="332.153" cy="147.782" r="108.218"/>
		<path style="fill:none;stroke:#000000;stroke-width:15;stroke-linecap:round;stroke-linejoin:round;stroke-miterlimit:10;" d="&#10;&#9;&#9;&#9;M103.697,74.335c11.79-6.819,25.478-10.722,40.077-10.722c44.272,0,80.161,35.889,80.161,80.161s-35.889,80.161-80.161,80.161&#10;&#9;&#9;&#9;s-80.161-35.889-80.161-80.161c0-18.047,5.963-34.7,16.027-48.098"/>
		
			<circle style="fill:none;stroke:#000000;stroke-width:15;stroke-linecap:round;stroke-linejoin:round;stroke-miterlimit:10;" cx="304.097" cy="408.307" r="64.129"/>
		
			<circle style="fill:none;stroke:#000000;stroke-width:15;stroke-linecap:round;stroke-linejoin:round;stroke-miterlimit:10;" cx="420.331" cy="284.057" r="52.105"/>
		<path style="fill:none;stroke:#000000;stroke-width:15;stroke-linecap:round;stroke-linejoin:round;stroke-miterlimit:10;" d="&#10;&#9;&#9;&#9;M342.518,312.113c-5.234,18.505-22.248,32.064-42.429,32.064c-24.35,0-44.089-19.739-44.089-44.089&#10;&#9;&#9;&#9;c0-24.35,19.739-44.089,44.089-44.089c17.133,0,31.983,9.773,39.281,24.048"/>
		<path style="fill:none;stroke:#000000;stroke-width:15;stroke-linecap:round;stroke-linejoin:round;stroke-miterlimit:10;" d="&#10;&#9;&#9;&#9;M504.5,284.057c0-14.335-3.691-27.767-10.085-39.546c-4.698-8.654-7.638-18.144-9.295-27.85&#10;&#9;&#9;&#9;c-1.885-11.044-4.55-21.822-7.935-32.276c-3.41-10.531-5.167-21.51-4.814-32.574c0.043-1.337,0.064-2.68,0.064-4.028&#10;&#9;&#9;&#9;C472.436,70.431,409.504,7.5,332.153,7.5c-20.661,0-40.248,4.542-57.895,12.627c-4.798,2.198-9.946,3.513-15.223,3.43&#10;&#9;&#9;&#9;c-1.01-0.016-2.021-0.024-3.035-0.024c-23.465,0-46.106,3.504-67.457,9.978c-6.486,1.967-13.318,2.42-19.921,0.892&#10;&#9;&#9;&#9;c-16.288-3.77-33.898-4.028-52.192,0.574C76.66,44.98,44.98,76.661,34.976,116.431c-4.734,18.819-4.325,36.914-0.241,53.591&#10;&#9;&#9;&#9;c1.388,5.668,0.926,11.568-0.802,17.141C27.189,208.918,23.532,232.028,23.532,256c0,1.112,0.01,2.221,0.029,3.329&#10;&#9;&#9;&#9;c0.087,5.083-1.184,10.043-3.311,14.661c-8.012,17.392-12.581,36.677-12.746,57.022c-0.536,66.166,47.162,124.252,111.811,138.352&#10;&#9;&#9;&#9;c14.592,3.182,28.754,3.744,42.348,2.363c3.881-0.394,7.761,0.074,11.405,1.465c22.409,8.558,46.481,13.727,71.599,14.93&#10;&#9;&#9;&#9;c4.096,0.196,8.022,1.467,11.572,3.521c14.097,8.155,30.425,12.857,47.857,12.857c35.782,0,67.002-19.669,83.555-48.742&#10;&#9;&#9;&#9;c5.121-8.993,12.072-16.786,19.914-23.538c20.376-17.544,37.668-38.56,50.971-62.133c4.95-8.772,10.881-17.001,18.336-23.774&#10;&#9;&#9;&#9;C493.829,330.911,504.5,308.715,504.5,284.057z"/>
		
			<circle style="fill:none;stroke:#000000;stroke-width:15;stroke-linecap:round;stroke-linejoin:round;stroke-miterlimit:10;" cx="151.609" cy="175.657" r="16.032"/>
		
			<circle style="fill:none;stroke:#000000;stroke-width:15;stroke-linecap:round;stroke-linejoin:round;stroke-miterlimit:10;" cx="111.71" cy="127.742" r="16.032"/>
		
			<circle style="fill:none;stroke:#000000;stroke-width:15;stroke-linecap:round;stroke-linejoin:round;stroke-miterlimit:10;" cx="171.486" cy="121.032" r="16.032"/>
		
			<circle style="fill:none;stroke:#000000;stroke-width:15;stroke-linecap:round;stroke-linejoin:round;stroke-miterlimit:10;" cx="138.116" cy="271.597" r="16.032"/>
		
			<circle style="fill:none;stroke:#000000;stroke-width:15;stroke-linecap:round;stroke-linejoin:round;stroke-miterlimit:10;" cx="103.693" cy="320.129" r="16.032"/>
		
			<circle style="fill:none;stroke:#000000;stroke-width:15;stroke-linecap:round;stroke-linejoin:round;stroke-miterlimit:10;" cx="168.258" cy="343.561" r="16.032"/>
		
			<circle style="fill:none;stroke:#000000;stroke-width:15;stroke-linecap:round;stroke-linejoin:round;stroke-miterlimit:10;" cx="191.617" cy="289.552" r="16.032"/>
		
			<circle style="fill:none;stroke:#000000;stroke-width:15;stroke-linecap:round;stroke-linejoin:round;stroke-miterlimit:10;" cx="134.976" cy="392.138" r="16.032"/>
		
			<circle style="fill:none;stroke:#000000;stroke-width:15;stroke-linecap:round;stroke-linejoin:round;stroke-miterlimit:10;" cx="91.014" cy="349.483" r="16.032"/>
		
			<circle style="fill:none;stroke:#000000;stroke-width:15;stroke-linecap:round;stroke-linejoin:round;stroke-miterlimit:10;" cx="192.488" cy="366.05" r="16.032"/>
		
			<circle style="fill:none;stroke:#000000;stroke-width:15;stroke-linecap:round;stroke-linejoin:round;stroke-miterlimit:10;" cx="292.852" cy="419.986" r="16.032"/>
		
			<circle style="fill:none;stroke:#000000;stroke-width:15;stroke-linecap:round;stroke-linejoin:round;stroke-miterlimit:10;" cx="316.901" cy="395.938" r="16.032"/>
		
			<circle style="fill:none;stroke:#000000;stroke-width:15;stroke-linecap:round;stroke-linejoin:round;stroke-miterlimit:10;" cx="302.791" cy="196.151" r="16.032"/>
		
			<circle style="fill:none;stroke:#000000;stroke-width:15;stroke-linecap:round;stroke-linejoin:round;stroke-miterlimit:10;" cx="366.231" cy="199.452" r="16.032"/>
		
			<circle style="fill:none;stroke:#000000;stroke-width:15;stroke-linecap:round;stroke-linejoin:round;stroke-miterlimit:10;" cx="279.794" cy="135.504" r="16.032"/>
		
			<circle style="fill:none;stroke:#000000;stroke-width:15;stroke-linecap:round;stroke-linejoin:round;stroke-miterlimit:10;" cx="355.492" cy="140.714" r="16.032"/>
		
			<circle style="fill:none;stroke:#000000;stroke-width:15;stroke-linecap:round;stroke-linejoin:round;stroke-miterlimit:10;" cx="384.188" cy="124.346" r="16.032"/>
		
			<circle style="fill:none;stroke:#000000;stroke-width:15;stroke-linecap:round;stroke-linejoin:round;stroke-miterlimit:10;" cx="416.323" cy="288.065" r="16.032"/>
		
			<circle style="fill:none;stroke:#000000;stroke-width:15;stroke-linecap:round;stroke-linejoin:round;stroke-miterlimit:10;" cx="319.875" cy="91.76" r="16.032"/>
	</g>
</g>















</svg>
