<svg id="Layer_1" enable-background="new 0 0 64 64" viewBox="0 0 64 64" xmlns="http://www.w3.org/2000/svg"><g id="XMLID_6_"><path id="XMLID_715_" d="m54.312 28.799c-2.6.7-5.32 1.33-8 1.81-2.31.41-4.59.69-6.73.8-.22.01-.43.05-.63.11-.95.28-1.66 1.06-1.85 2-.06.31-.07.64-.01.97.22 1.29.45 2.98.58 5.03.27 4.01.19 9.41-.91 15.96-.19 1.12-1.15 1.95-2.28 1.95h-13.24c-1.44 0-2.51-1.31-2.26-2.73.79-4.4 1.02-9.14.96-13.54.01-.12 0-.24 0-.36 0-.2 0-.4-.01-.6 0-.23-.01-.46-.01-.68-.05-2.12-.17-4.15-.31-6-.01-.11-.02-.21-.03-.31-.2-2.55-.45-4.76-.67-6.43-.28-2.08.65-4.15 2.38-5.35l.95-.66 3.29-2.28.09-.06 3.53-2.44 5.93-4.11 7.11-4.92c1.19-.82 2.84-.46 3.56.8l10.05 17.4c.82 1.41.08 3.22-1.49 3.64z" fill="#fcd8b0"/><path id="XMLID_900_" d="m54.312 28.801c-2.6.7-5.32 1.33-8 1.81-2.31.41-4.59.69-6.73.8-.22.01-.43.05-.63.11-.95.28-1.66 1.06-1.85 2-.06.31-.07.64-.01.97.22 1.29.45 2.98.58 5.03.27 4.01.19 9.41-.91 15.96-.19 1.12-1.15 1.95-2.28 1.95h-13.24c-1.44 0-2.51-1.31-2.26-2.73.79-4.4 1.02-9.14.96-13.54.01-.12-.04-2.47-.06-2.87-.06-1.68-.29-4.98-.3-5.08 0-.05-.34-3.74-.51-5.16-.05-.45-.11-.88-.16-1.27-.26-1.96.54-3.9 2.08-5.12.1-.08 21.2-14.7 21.2-14.7 1.19-.82 2.84-.46 3.56.8l10.05 17.4c.82 1.41.08 3.22-1.49 3.64z" fill="#f8c1a4"/><path id="XMLID_862_" d="m54.312 28.801c-2.6.7-5.32 1.33-8 1.81-2.31.41-7.16.85-7.36.91-.95.28-1.66 1.06-1.85 2-.06.31-.07.64-.01.97.22 1.29.45 2.98.58 5.03.27 4.01.19 9.41-.91 15.96-.19 1.12-1.15 1.95-2.28 1.95h-2.24c.91-.19 1.64-.93 1.8-1.89 1.1-6.55 1.18-11.95.91-15.96-.13-2.05-.36-3.74-.58-5.03-.06-.33-.05-.66.01-.97.19-.94.9-1.72 1.85-2 .2-.06 5.05-.5 7.36-.91 2.68-.48 5.4-1.11 8-1.81 1.57-.42 2.31-2.23 1.49-3.64l-10.05-17.4c-.21-.37-.5-.66-.84-.86 1.19-.82 2.84-.46 3.56.8l10.05 17.4c.82 1.41.08 3.22-1.49 3.64z" fill="#e79f90"/><g id="XMLID_4_" fill="#f0717a"><path id="XMLID_5_" d="m18.038 14.986c-.041-.137-.116-.269-.224-.377-.348-.348-.912-.348-1.26 0l-1.286 1.286-1.84-2.604c-.079-.111-.224-.164-.36-.12-.168.054-.261.235-.207.403l1.389 4.305c.043.131.117.258.221.362.353.353.926.353 1.279 0l1.294-1.294 1.917 2.577c.051.068.14.101.226.075.11-.033.173-.148.141-.259z"/><path id="XMLID_9_" d="m10.911 24.934c.091.103.209.191.346.245.464.185.99-.04 1.175-.504l.68-1.699 2.777 1.614c.073.042.169.037.238-.02.088-.073.101-.205.027-.293l-2.9-3.496c-.091-.109-.213-.202-.355-.258-.457-.183-.975.039-1.158.496l-.676 1.689-2.717-1.668c-.116-.071-.27-.063-.378.032-.133.116-.147.319-.031.452z"/><path id="XMLID_10_" d="m16.247 30.314-4.456-.88c-.14-.027-.292-.022-.438.024-.47.147-.732.646-.585 1.116l.542 1.737-3.161.421c-.135.018-.249.122-.273.263-.03.174.087.34.261.37l4.458.769c.136.023.283.016.423-.028.477-.149.742-.656.594-1.133l-.545-1.747 3.172-.502c.084-.013.154-.077.172-.165.022-.113-.051-.223-.164-.245z"/></g><path id="XMLID_832_" d="m51.982 18.561s-12.59 5.79-14.09 6.61c-1.5.81-1.85 4.46-2.33 5.26-.1.16-1.061 1.029-1.9 1.05-1.07.12-2.37-.18-3.52-.88-.35-.21.31-1.83 0-2.12-.36-.34-1.43.29-1.91.14h-.01c-.07-.03-.13-.07-.17-.14-.28-.51-.5-1.08-.62-1.71-.04-.18-.06-.37-.08-.56-.53-5.49 5.04-4.61 5.04-4.61l15.09-10.85 4.48 7.75z" fill="#eee"/><path id="XMLID_704_" d="m25.142 23.479s-.438 3.813 0 6c.182.909-1.716 2.201-2.233 1.432-1.487-2.216-1.829-6.432 2.233-7.432z" fill="#eee"/><path id="XMLID_863_" d="m25.142 29.481c.18.91-1.72 2.2-2.23 1.43-.16-.24-.3-.49-.43-.77.72.17 2.07-.88 1.92-1.65-.28-1.39-.2-3.42-.12-4.73.26-.11.55-.2.86-.28 0 0-.44 3.81 0 6z" fill="#e0e0e0"/><path id="XMLID_833_" d="m32.142 36.661c-.62.63-2.75 0-4 1.88-.49.73.25 4.81 0 7.94-.11 1.43-1 11-1 11l-3.9-.05s1.23-13.64.9-15.95c-.15-1.03-1.27-2.89-1.74-3.59-.45-.69-.3-1.59.33-2.11.58-.48 1.75-1.92 1.82-2.02.36-.49.97-.73 1.54-.6.1.03 6.05 1.32 6.05 1.32 1.078.463.62 1.56 0 2.18z" fill="#eee"/><path id="XMLID_702_" d="m33.852 43.549c-.24 1.44-.76 10.65-.94 13.88h-2.95c.31-3.32 1.2-12.95.89-13.88-.38-1.13-.5-2.08.91-3.08 0 0 1.71-1.42 2.13-.86s.25 2.19-.04 3.94z" fill="#eee"/><g fill="#e0e0e0"><path id="XMLID_860_" d="m33.852 43.551c-.24 1.44-.76 10.65-.94 13.88h-.76c.21-3.82.66-11.56.88-12.87.29-1.75.46-3.38.04-3.94s-2.13.86-2.13.86c-.07.05-.14.1-.21.16.15-.39.47-.78 1.03-1.17 0 0 1.71-1.42 2.13-.86s.25 2.19-.04 3.94z"/><path id="XMLID_453_" d="m32.783 35.374c.006-.053.071-.676-.641-.892 0 0-.15-.01-.4-.03v.004c-.975-.074-3.543-.34-5.35-1.184-.1-.05-.2-.08-.3-.11-.57-.13-1.18.11-1.54.6-.07.1-.15.2-.23.3-.45.59-1.01 1.24-1.59 1.72-.44.36-.65.91-.57 1.44.03-.41.23-.8.57-1.08.58-.48 1.661-1.813 1.697-1.86l.973 2-1.45.98c-.12.08-.15.23-.07.35l1.26 1.87-.63-1.82 1.89-.66c.23-.08.37-.31.32-.56l-.554-2.892c.075.023.15.045.224.082 1.796.839 4.344 1.107 5.331 1.183-.067.437-.294.92-.581 1.207-.62.63-2.75 0-4 1.88-.49.73.25 4.81 0 7.94-.11 1.43-1 11.63-1 11.63l1 .01s.89-9.57 1-11c.25-3.13-.49-7.21 0-7.94 1.25-1.88 3.38-1.25 4-1.88.653-.641.641-1.282.641-1.288z"/><g id="XMLID_452_"><path id="XMLID_455_" d="m29.972 27.221c-.148-.139-.416-.114-.712-.048l.282-.912 1.54.52c.14.04.29-.03.33-.17l.73-2.13-1.07 1.57-1.66-1.12c-.22-.16-.54-.11-.7.12l-1.133 1.521c-.104-.26-.193-.532-.257-.82 0 .15.02.3.03.46.02.19.04.38.08.56.12.63.34 1.2.62 1.71.04.07.1.11.17.14h.01c.41.13 1.25-.31 1.71-.23.09-.491.19-1.021.03-1.171z"/><path id="XMLID_460_" d="m51.972 18.531-.01-.03-4.48-7.75-1.95 1.4 3.669 6.353c-3.77 1.739-10.418 4.825-11.479 5.407-1.5.81-1.85 4.46-2.33 5.26-.1.16-.22.3-.36.42-.063.058-.138.107-.21.158l-.95-1.278s.63-.94.62-.99l-.35-2-.31 1.79-1.12.78c-.15.11-.23.31-.17.5l.503 1.677c-.92.005-1.947-.246-2.893-.787-.09.51-.2 1.05-.01 1.16 1.15.7 2.45 1 3.52.88.62-.07 1.16-.28 1.54-.63.14-.12.26-.26.36-.42.48-.8.83-4.45 2.33-5.26 1.118-.611 8.391-3.981 12.027-5.659 1.248-.572 2.063-.951 2.063-.951z"/></g></g><path id="XMLID_898_" d="m35.142 25.491c0 7.18-5.82 13-13 13-.77 0-1.53-.07-2.26-.2-.06-1.68-.92-11.12-.97-11.51-.26-1.96.54-3.9 2.08-5.12.1-.08 9.19-6.38 9.19-6.38 3.02 2.37 4.96 6.07 4.96 10.21z" fill="#d86170" opacity=".3"/><path id="XMLID_896_" d="m30.142 25.491c0 4.42-3.58 8-8 8-.9 0-1.76-.15-2.57-.43-.15-1.89-.61-5.89-.66-6.28-.26-1.96.54-3.9 2.08-5.12.1-.08 4.75-3.31 4.75-3.31 2.61 1.31 4.4 4.02 4.4 7.14z" fill="#ea7e78" opacity=".5"/><path id="XMLID_894_" d="m26.142 25.491c0 2.21-1.79 4-4 4-1.23 0-2.34-.56-3.07-1.44-.05-.45-.11-.88-.16-1.27-.26-1.96.54-3.9 2.08-5.12.37-.11.75-.17 1.15-.17 2.21 0 4 1.79 4 4z" fill="#ea7e78" opacity=".8"/></g></svg>