<svg id="Layer_2" enable-background="new 0 0 512 512" viewBox="0 0 512 512" xmlns="http://www.w3.org/2000/svg"><g style="fill:none;stroke:#474747;stroke-linecap:round;stroke-linejoin:round;stroke-miterlimit:10;stroke-width:15"><g><path d="m207.18 132.96-42.616 36.023c-17.667 14.877-18.525 41.791-1.842 57.764 13.235 12.672 33.527 14.37 48.685 4.075l14.298-9.712c12.517-8.502 28.832-8.961 41.807-1.176l18.599 11.159c16.611 9.967 38.027 6.17 50.199-8.9l1.935-2.395c13.72-16.987 10.745-41.943-6.584-55.229l-44.113-31.609"/><path d="m187.193 149.927.001-134.638"/><path d="m308.882 148.184v-132.895"/></g><g><path d="m290.431 369.765 42.616-36.023c17.667-14.877 18.525-41.791 1.842-57.764-13.235-12.672-33.527-14.37-48.685-4.075l-14.298 9.712c-12.517 8.502-28.832 8.961-41.807 1.176l-18.599-11.159c-16.611-9.967-38.027-6.17-50.199 8.9l-1.935 2.395c-13.72 16.987-10.745 41.943 6.584 55.229l44.113 31.609"/><path d="m310.418 352.799v144.638"/><path d="m191.728 358.542v138.895"/></g><g><path d="m187.194 58.807v8.091c0 15.844-5.49 31.211-15.598 43.412-22.482 27.135-61.325 69.129-61.325 145.069s42.407 123.466 66.026 152.243c9.996 12.179 15.432 27.455 15.432 43.211"/><path d="m187.194 32.863c-3.58 10.858-9.264 21.039-16.854 29.948-30.716 36.054-83.786 91.851-83.786 192.752s57.939 164.048 90.207 202.283c6.397 7.58 11.427 16.062 14.967 25.09"/></g><g><path d="m308.882 58.807v8.091c0 15.844 12.217 31.211 22.325 43.412 22.482 27.135 61.325 69.129 61.325 145.069s-42.407 123.466-66.026 152.243c-9.996 12.179-15.432 27.455-15.432 43.211"/><path d="m308.882 32.863c3.58 10.858 15.991 21.039 23.581 29.948 30.716 36.054 83.786 91.851 83.786 192.752s-57.939 164.048-90.207 202.283c-6.397 7.58-11.427 16.062-14.967 25.09"/></g></g></svg>